<?xml version="1.0" encoding="us-ascii" standalone="no"?><svg xmlns="http://www.w3.org/2000/svg" xmlns:xlink="http://www.w3.org/1999/xlink" contentStyleType="text/css" height="1039px" preserveAspectRatio="none" style="width:1045px;height:1039px;background:#FFFFFF;" version="1.1" viewBox="0 0 1045 1039" width="1045px" zoomAndPan="magnify"><defs/><g><g id="pending"><rect fill="#F1F1F1" height="50" rx="12.5" ry="12.5" style="stroke:#181818;stroke-width:0.5;" width="186" x="631.5" y="87"/><line style="stroke:#181818;stroke-width:0.5;" x1="631.5" x2="817.5" y1="114.6094" y2="114.6094"/><text fill="#000000" font-family="sans-serif" font-size="14" lengthAdjust="spacing" textLength="166" x="641.5" y="106.5332">&#1054;&#1078;&#1080;&#1076;&#1072;&#1077;&#1090; &#1087;&#1086;&#1076;&#1090;&#1074;&#1077;&#1088;&#1078;&#1076;&#1077;&#1085;&#1080;&#1103;</text></g><g id="confirmed"><rect fill="#F1F1F1" height="50" rx="12.5" ry="12.5" style="stroke:#181818;stroke-width:0.5;" width="116" x="332.5" y="215"/><line style="stroke:#181818;stroke-width:0.5;" x1="332.5" x2="448.5" y1="242.6094" y2="242.6094"/><text fill="#000000" font-family="sans-serif" font-size="14" lengthAdjust="spacing" textLength="96" x="342.5" y="234.5332">&#1055;&#1086;&#1076;&#1090;&#1074;&#1077;&#1088;&#1078;&#1076;&#1077;&#1085;&#1072;</text></g><g id="checked_in"><rect fill="#F1F1F1" height="50" rx="12.5" ry="12.5" style="stroke:#181818;stroke-width:0.5;" width="121" x="19" y="343"/><line style="stroke:#181818;stroke-width:0.5;" x1="19" x2="140" y1="370.6094" y2="370.6094"/><text fill="#000000" font-family="sans-serif" font-size="14" lengthAdjust="spacing" textLength="101" x="29" y="362.5332">&#1050;&#1083;&#1080;&#1077;&#1085;&#1090; &#1087;&#1088;&#1080;&#1073;&#1099;&#1083;</text></g><g id="in_progress"><rect fill="#F1F1F1" height="50" rx="12.5" ry="12.5" style="stroke:#181818;stroke-width:0.5;" width="140" x="9.5" y="471"/><line style="stroke:#181818;stroke-width:0.5;" x1="9.5" x2="149.5" y1="498.6094" y2="498.6094"/><text fill="#000000" font-family="sans-serif" font-size="14" lengthAdjust="spacing" textLength="120" x="19.5" y="490.5332">&#1042; &#1087;&#1088;&#1086;&#1094;&#1077;&#1089;&#1089;&#1077; &#1084;&#1086;&#1081;&#1082;&#1080;</text></g><g id="quality_check"><rect fill="#F1F1F1" height="50" rx="12.5" ry="12.5" style="stroke:#181818;stroke-width:0.5;" width="145" x="7" y="599"/><line style="stroke:#181818;stroke-width:0.5;" x1="7" x2="152" y1="626.6094" y2="626.6094"/><text fill="#000000" font-family="sans-serif" font-size="14" lengthAdjust="spacing" textLength="125" x="17" y="618.5332">&#1050;&#1086;&#1085;&#1090;&#1088;&#1086;&#1083;&#1100; &#1082;&#1072;&#1095;&#1077;&#1089;&#1090;&#1074;&#1072;</text></g><g id="ready"><rect fill="#F1F1F1" height="50" rx="12.5" ry="12.5" style="stroke:#181818;stroke-width:0.5;" width="140" x="9.5" y="727"/><line style="stroke:#181818;stroke-width:0.5;" x1="9.5" x2="149.5" y1="754.6094" y2="754.6094"/><text fill="#000000" font-family="sans-serif" font-size="14" lengthAdjust="spacing" textLength="120" x="19.5" y="746.5332">&#1040;&#1074;&#1090;&#1086;&#1084;&#1086;&#1073;&#1080;&#1083;&#1100; &#1075;&#1086;&#1090;&#1086;&#1074;</text></g><g id="completed"><rect fill="#F1F1F1" height="50" rx="12.5" ry="12.5" style="stroke:#181818;stroke-width:0.5;" width="120" x="19.5" y="983"/><line style="stroke:#181818;stroke-width:0.5;" x1="19.5" x2="139.5" y1="1010.6094" y2="1010.6094"/><text fill="#000000" font-family="sans-serif" font-size="14" lengthAdjust="spacing" textLength="100" x="29.5" y="1002.5332">&#1059;&#1089;&#1083;&#1091;&#1075;&#1072; &#1086;&#1082;&#1072;&#1079;&#1072;&#1085;&#1072;</text></g><g id="cancelled"><rect fill="#F1F1F1" height="50" rx="12.5" ry="12.5" style="stroke:#181818;stroke-width:0.5;" width="88" x="473.5" y="343"/><line style="stroke:#181818;stroke-width:0.5;" x1="473.5" x2="561.5" y1="370.6094" y2="370.6094"/><text fill="#000000" font-family="sans-serif" font-size="14" lengthAdjust="spacing" textLength="68" x="483.5" y="362.5332">&#1054;&#1090;&#1084;&#1077;&#1085;&#1077;&#1085;&#1072;</text></g><g id="waiting_payment"><rect fill="#F1F1F1" height="50" rx="12.5" ry="12.5" style="stroke:#181818;stroke-width:0.5;" width="132" x="211.5" y="855"/><line style="stroke:#181818;stroke-width:0.5;" x1="211.5" x2="343.5" y1="882.6094" y2="882.6094"/><text fill="#000000" font-family="sans-serif" font-size="14" lengthAdjust="spacing" textLength="112" x="221.5" y="874.5332">&#1054;&#1078;&#1080;&#1076;&#1072;&#1077;&#1090; &#1086;&#1087;&#1083;&#1072;&#1090;&#1099;</text></g><g id="postponed"><rect fill="#F1F1F1" height="50" rx="12.5" ry="12.5" style="stroke:#181818;stroke-width:0.5;" width="87" x="762" y="343"/><line style="stroke:#181818;stroke-width:0.5;" x1="762" x2="849" y1="370.6094" y2="370.6094"/><text fill="#000000" font-family="sans-serif" font-size="14" lengthAdjust="spacing" textLength="67" x="772" y="362.5332">&#1054;&#1090;&#1083;&#1086;&#1078;&#1077;&#1085;&#1072;</text></g><g id="no_show"><rect fill="#F1F1F1" height="50" rx="12.5" ry="12.5" style="stroke:#181818;stroke-width:0.5;" width="137" x="175" y="343"/><line style="stroke:#181818;stroke-width:0.5;" x1="175" x2="312" y1="370.6094" y2="370.6094"/><text fill="#000000" font-family="sans-serif" font-size="14" lengthAdjust="spacing" textLength="117" x="185" y="362.5332">&#1050;&#1083;&#1080;&#1077;&#1085;&#1090; &#1085;&#1077; &#1103;&#1074;&#1080;&#1083;&#1089;&#1103;</text></g><ellipse cx="724.5" cy="16" fill="#222222" rx="10" ry="10" style="stroke:#222222;stroke-width:1.0;"/><!--link *start* to pending--><g id="link_*start*_pending"><path d="M724.5,26.01 C724.5,39.89 724.5,60.97 724.5,80.84 " fill="none" id="*start*-to-pending" style="stroke:#181818;stroke-width:1.0;"/><polygon fill="#181818" points="724.5,86.84,728.5,77.84,724.5,81.84,720.5,77.84,724.5,86.84" style="stroke:#181818;stroke-width:1.0;"/></g><!--link pending to confirmed--><g id="link_pending_confirmed"><path d="M631.33,122.23 C582.96,129.69 524,143.08 475.5,167 C451.56,178.8 432.9766,194.5614 417.0166,210.4914 " fill="none" id="pending-to-confirmed" style="stroke:#181818;stroke-width:1.0;"/><polygon fill="#181818" points="412.77,214.73,421.9657,211.2031,416.3089,211.1978,416.3142,205.5409,412.77,214.73" style="stroke:#181818;stroke-width:1.0;"/><text fill="#000000" font-family="sans-serif" font-size="13" lengthAdjust="spacing" textLength="140" x="476.5" y="181.4951">&#1055;&#1086;&#1076;&#1090;&#1074;&#1077;&#1088;&#1078;&#1076;&#1077;&#1085;&#1080;&#1077; &#1079;&#1072;&#1087;&#1080;&#1089;&#1080;</text></g><!--link confirmed to checked_in--><g id="link_confirmed_checked_in"><path d="M332.25,245.93 C283.02,252.03 211.88,265.51 156.5,295 C134.21,306.87 117.5777,322.4048 103.2977,338.3148 " fill="none" id="confirmed-to-checked_in" style="stroke:#181818;stroke-width:1.0;"/><polygon fill="#181818" points="99.29,342.78,108.2784,338.754,102.6298,339.059,102.3248,333.4104,99.29,342.78" style="stroke:#181818;stroke-width:1.0;"/><text fill="#000000" font-family="sans-serif" font-size="13" lengthAdjust="spacing" textLength="89" x="157.5" y="309.4951">&#1050;&#1083;&#1080;&#1077;&#1085;&#1090; &#1087;&#1088;&#1080;&#1073;&#1099;&#1083;</text></g><!--link checked_in to in_progress--><g id="link_checked_in_in_progress"><path d="M79.5,393.29 C79.5,415.61 79.5,442.49 79.5,464.78 " fill="none" id="checked_in-to-in_progress" style="stroke:#181818;stroke-width:1.0;"/><polygon fill="#181818" points="79.5,470.78,83.5,461.78,79.5,465.78,75.5,461.78,79.5,470.78" style="stroke:#181818;stroke-width:1.0;"/><text fill="#000000" font-family="sans-serif" font-size="13" lengthAdjust="spacing" textLength="90" x="80.5" y="437.4951">&#1053;&#1072;&#1095;&#1072;&#1083;&#1086; &#1088;&#1072;&#1073;&#1086;&#1090;&#1099;</text></g><!--link in_progress to quality_check--><g id="link_in_progress_quality_check"><path d="M79.5,521.29 C79.5,543.61 79.5,570.49 79.5,592.78 " fill="none" id="in_progress-to-quality_check" style="stroke:#181818;stroke-width:1.0;"/><polygon fill="#181818" points="79.5,598.78,83.5,589.78,79.5,593.78,75.5,589.78,79.5,598.78" style="stroke:#181818;stroke-width:1.0;"/><text fill="#000000" font-family="sans-serif" font-size="13" lengthAdjust="spacing" textLength="112" x="80.5" y="565.4951">&#1056;&#1072;&#1073;&#1086;&#1090;&#1072; &#1079;&#1072;&#1074;&#1077;&#1088;&#1096;&#1077;&#1085;&#1072;</text></g><!--link quality_check to ready--><g id="link_quality_check_ready"><path d="M79.5,649.29 C79.5,671.61 79.5,698.49 79.5,720.78 " fill="none" id="quality_check-to-ready" style="stroke:#181818;stroke-width:1.0;"/><polygon fill="#181818" points="79.5,726.78,83.5,717.78,79.5,721.78,75.5,717.78,79.5,726.78" style="stroke:#181818;stroke-width:1.0;"/><text fill="#000000" font-family="sans-serif" font-size="13" lengthAdjust="spacing" textLength="122" x="80.5" y="693.4951">&#1050;&#1072;&#1095;&#1077;&#1089;&#1090;&#1074;&#1086; &#1087;&#1088;&#1086;&#1074;&#1077;&#1088;&#1077;&#1085;&#1086;</text></g><!--link ready to waiting_payment--><g id="link_ready_waiting_payment"><path d="M117.68,777.29 C152.85,799.68 199.6879,829.4789 234.7179,851.7689 " fill="none" id="ready-to-waiting_payment" style="stroke:#181818;stroke-width:1.0;"/><polygon fill="#181818" points="239.78,854.99,234.3342,846.7837,235.5616,852.3058,230.0395,853.5331,239.78,854.99" style="stroke:#181818;stroke-width:1.0;"/><text fill="#000000" font-family="sans-serif" font-size="13" lengthAdjust="spacing" textLength="99" x="191.5" y="821.4951">&#1054;&#1078;&#1080;&#1076;&#1072;&#1077;&#1090; &#1086;&#1087;&#1083;&#1072;&#1090;&#1099;</text></g><!--link waiting_payment to completed--><g id="link_waiting_payment_completed"><path d="M239.32,905.29 C204.15,927.68 157.3121,957.4789 122.2821,979.7689 " fill="none" id="waiting_payment-to-completed" style="stroke:#181818;stroke-width:1.0;"/><polygon fill="#181818" points="117.22,982.99,126.9605,981.5331,121.4384,980.3058,122.6658,974.7837,117.22,982.99" style="stroke:#181818;stroke-width:1.0;"/><text fill="#000000" font-family="sans-serif" font-size="13" lengthAdjust="spacing" textLength="103" x="191.5" y="949.4951">&#1054;&#1087;&#1083;&#1072;&#1090;&#1072; &#1087;&#1086;&#1083;&#1091;&#1095;&#1077;&#1085;&#1072;</text></g><!--link ready to completed--><g id="link_ready_completed"><path d="M75.84,777.25 C72.92,797.87 69.07,828.3 67.5,855 C66.2,877.18 66.2,882.82 67.5,905 C69.07,931.7 72.0787,956.1893 74.9987,976.8093 " fill="none" id="ready-to-completed" style="stroke:#181818;stroke-width:1.0;"/><polygon fill="#181818" points="75.84,982.75,78.5386,973.2781,75.1389,977.7994,70.6176,974.3998,75.84,982.75" style="stroke:#181818;stroke-width:1.0;"/><text fill="#000000" font-family="sans-serif" font-size="13" lengthAdjust="spacing" textLength="124" x="68.5" y="885.4951">&#1050;&#1083;&#1080;&#1077;&#1085;&#1090; &#1087;&#1086;&#1083;&#1091;&#1095;&#1080;&#1083; &#1072;&#1074;&#1090;&#1086;</text></g><!--link pending to cancelled--><g id="link_pending_cancelled"><path d="M706.69,137.27 C692.43,157.4 672.57,187.14 658.5,215 C637.51,256.56 652.42,278.2 621.5,313 C605.55,330.95 587.7373,341.4858 567.2073,350.1558 " fill="none" id="pending-to-cancelled" style="stroke:#181818;stroke-width:1.0;"/><polygon fill="#181818" points="561.68,352.49,571.5271,352.6735,566.2861,350.5448,568.4148,345.3038,561.68,352.49" style="stroke:#181818;stroke-width:1.0;"/><text fill="#000000" font-family="sans-serif" font-size="13" lengthAdjust="spacing" textLength="90" x="659.5" y="245.4951">&#1054;&#1090;&#1084;&#1077;&#1085;&#1072; &#1079;&#1072;&#1087;&#1080;&#1089;&#1080;</text></g><!--link confirmed to cancelled--><g id="link_confirmed_cancelled"><path d="M382.69,265.31 C379.43,280.27 378.26,299.16 387.5,313 C406.49,341.46 437.7232,353.6826 467.4432,360.0526 " fill="none" id="confirmed-to-cancelled" style="stroke:#181818;stroke-width:1.0;"/><polygon fill="#181818" points="473.31,361.31,465.3482,355.5127,468.421,360.2621,463.6716,363.335,473.31,361.31" style="stroke:#181818;stroke-width:1.0;"/><text fill="#000000" font-family="sans-serif" font-size="13" lengthAdjust="spacing" textLength="90" x="388.5" y="309.4951">&#1054;&#1090;&#1084;&#1077;&#1085;&#1072; &#1079;&#1072;&#1087;&#1080;&#1089;&#1080;</text></g><!--link pending to postponed--><g id="link_pending_postponed"><path d="M732.27,137.35 C747.75,185.9 780.4664,288.5139 795.9364,337.0039 " fill="none" id="pending-to-postponed" style="stroke:#181818;stroke-width:1.0;"/><polygon fill="#181818" points="797.76,342.72,798.8353,332.93,796.2403,337.9565,791.2138,335.3615,797.76,342.72" style="stroke:#181818;stroke-width:1.0;"/><text fill="#000000" font-family="sans-serif" font-size="13" lengthAdjust="spacing" textLength="96" x="773.5" y="245.4951">&#1055;&#1077;&#1088;&#1077;&#1085;&#1086;&#1089; &#1079;&#1072;&#1087;&#1080;&#1089;&#1080;</text></g><!--link postponed to pending--><g id="link_postponed_pending"><path d="M831.62,342.97 C861.18,312.73 902.33,259.36 878.5,215 C859.15,178.98 826.266,156.184 792.716,139.714 " fill="none" id="postponed-to-pending" style="stroke:#181818;stroke-width:1.0;"/><polygon fill="#181818" points="787.33,137.07,793.6463,144.6267,791.8183,139.2734,797.1717,137.4454,787.33,137.07" style="stroke:#181818;stroke-width:1.0;"/><text fill="#000000" font-family="sans-serif" font-size="13" lengthAdjust="spacing" textLength="151" x="886.5" y="245.4951">&#1055;&#1086;&#1074;&#1090;&#1086;&#1088;&#1085;&#1086;&#1077; &#1087;&#1083;&#1072;&#1085;&#1080;&#1088;&#1086;&#1074;&#1072;&#1085;&#1080;&#1077;</text></g><!--link confirmed to postponed--><g id="link_confirmed_postponed"><path d="M448.64,258.65 C532.85,284.22 681.1387,329.2472 756.2487,352.0472 " fill="none" id="confirmed-to-postponed" style="stroke:#181818;stroke-width:1.0;"/><polygon fill="#181818" points="761.99,353.79,754.5399,347.3483,757.2056,352.3377,752.2162,355.0033,761.99,353.79" style="stroke:#181818;stroke-width:1.0;"/><text fill="#000000" font-family="sans-serif" font-size="13" lengthAdjust="spacing" textLength="96" x="624.5" y="309.4951">&#1055;&#1077;&#1088;&#1077;&#1085;&#1086;&#1089; &#1079;&#1072;&#1087;&#1080;&#1089;&#1080;</text></g><!--link confirmed to no_show--><g id="link_confirmed_no_show"><path d="M332.4,254.96 C309.14,263.17 283.81,275.83 266.5,295 C254.63,308.15 249.952,321.5465 247.172,336.8565 " fill="none" id="confirmed-to-no_show" style="stroke:#181818;stroke-width:1.0;"/><polygon fill="#181818" points="246.1,342.76,251.6436,334.6194,246.9933,337.8404,243.7723,333.1902,246.1,342.76" style="stroke:#181818;stroke-width:1.0;"/><text fill="#000000" font-family="sans-serif" font-size="13" lengthAdjust="spacing" textLength="105" x="267.5" y="309.4951">&#1050;&#1083;&#1080;&#1077;&#1085;&#1090; &#1085;&#1077; &#1103;&#1074;&#1080;&#1083;&#1089;&#1103;</text></g><!--SRC=[dLJBQkD04BpFLmmv1l83UzWV2K48UzOMiKTQIqlmBN8W2IIGa6CW3yWFA5xRgrrbvL_e-QDqzyZZaJSsImu6MwxgwgugEyt2JCazU8G5b3230kPc8c49DSpC1ARuyHI_ci4S_a9fRlPacCf4wMwaUo9jo4yVeWl6TcBzBHeDLTUXxw52AKIm419AU3LNK5buNtMELJU8jCFVMLHjpd5yRdAOItX3nT_m1qecHJf8Hd5lfDBKKwb9WOXGcMk9uC9Sy0HQr2xt_KSuYB9nmAgEUWjJnDGiyehRCVqdBa0FfqmSgR0xTeGNNAeoPuWf949G2NxXQst1C1cepBFW4KUziKcUKQ7kgC70HxKpgJ6L2e-Oc2icd8HHXYa4IJWUAfsrXbU8NdZ3apZDabXlIm7taEO6RQ5ZyoPb7GTfFpuHud3_I1uSV7MnY-ODFtJvoYzoIn5AIemCMMA3SYZ5ciCJNEGqObixX0SZbfSvqHuutO8EbqWgCBYQd18-ZdYjo8dvl09JUBGbBsykhNkYZQS9dBrTrMzKtTIqEPxOjR1OOcsaHVpj-OfDj7MwgP7bDc3QUiaTFwDbUEUrQelJjjPnC7D9PrEzDx9TLP8LNMUBdMd-5yTNSTsq3NBccNoNpkTOJQV_SMFp1o3MuxtchohELg4Wob6rEGd-UxJn5xRpuXq0]--></g></svg>